# File created by Blade
# Date/Time:  Wed Jan 21 14:55:15 2015
# Frame Rate: 120.000 fps
#------------------------------------------------------
:FULLY-SPECIFIED
:DEGREES
515
root 19.438221 17.098736 -19.575138 -98.975583 83.218496 -124.181638
Spine 7.052988 -4.195468 6.672089
Head -17.151946 -2.687437 -0.489229
LeftShoulder -20.703476 -43.827834 27.806225
LeftArm -20.099786 1.792017 -6.767597
LeftForeArm -0.799434 -0.000000 0.042402
LeftHand -13.483288 -0.000000 1.702622
LeftHandThumb1 -26.253704 0.000000 33.147579
RightShoulder -13.413532 6.687871 -18.318161
RightArm -20.996782 40.765078 11.739277
RightForeArm -34.814408 -0.000000 12.134122
RightHand -14.841435 -0.000000 -0.763303
RightHandThumb1 -24.326973 -0.000000 -32.862282
LeftUpLeg 3.579242 14.310477 4.982859
LeftLeg 73.738941 -0.000000 -0.000000
LeftFoot -20.604903 16.100613 -13.338832
LeftToeBase -71.407283 -0.000000 0.000000
RightUpLeg -114.079815 15.383615 8.036473
RightLeg 111.638686 -0.000000 -0.000000
RightFoot -40.918936 -24.483127 14.845734
RightToeBase 24.755528 -0.000000 -0.000000
516
root 19.452626 17.096774 -19.578184 -98.820824 83.186177 -124.177109
Spine 7.460297 -4.176473 6.688070
Head -17.246216 -2.767609 -0.437940
LeftShoulder -20.687919 -43.907344 27.849657
LeftArm -20.384056 1.819596 -6.819916
LeftForeArm -0.930900 -0.000000 0.114982
LeftHand -13.541686 0.000000 1.797834
LeftHandThumb1 -26.253704 0.000000 33.147579
RightShoulder -13.393222 6.697816 -18.299549
RightArm -21.072345 40.586890 11.885617
RightForeArm -34.485898 0.000000 12.176478
RightHand -14.897293 -0.000000 -0.964935
RightHandThumb1 -24.326973 -0.000000 -32.862282
LeftUpLeg 3.471383 14.311599 4.978892
LeftLeg 73.686378 -0.000000 -0.000000
LeftFoot -20.575851 16.090339 -13.332532
LeftToeBase -71.429827 -0.000000 0.000000
RightUpLeg -114.221634 15.435557 7.991246
RightLeg 111.653303 -0.000000 -0.000000
RightFoot -40.942216 -24.597981 14.809877
RightToeBase 24.847492 -0.000000 -0.000000
517
root 19.468423 17.094013 -19.581721 -98.735404 83.119190 -124.192018
Spine 7.935435 -4.168892 6.760629
Head -17.387482 -2.756876 -0.428336
LeftShoulder -20.698094 -43.928556 27.844551
LeftArm -20.571088 1.848023 -6.912508
LeftForeArm -1.198171 -0.000000 0.083251
LeftHand -13.532462 -0.000000 1.779341
LeftHandThumb1 -26.253704 0.000000 33.147579
RightShoulder -13.369846 6.782063 -18.347428
RightArm -21.229798 40.505398 11.955157
RightForeArm -34.211207 -0.000000 12.176191
RightHand -14.970305 0.000000 -1.174447
RightHandThumb1 -24.326973 -0.000000 -32.862282
LeftUpLeg 3.417401 14.298430 5.022863
LeftLeg 73.639785 -0.000000 -0.000000
LeftFoot -20.576329 16.028846 -13.333244
LeftToeBase -71.407028 -0.000000 0.000000
RightUpLeg -114.305311 15.484841 8.020365
RightLeg 111.690334 -0.000000 -0.000000
RightFoot -40.984715 -24.672934 14.857797
RightToeBase 24.696686 -0.000000 -0.000000
518
root 19.481619 17.091130 -19.588278 -98.734581 83.058970 -124.303336
Spine 8.397577 -4.170568 6.827157
Head -17.494101 -2.781483 -0.405889
LeftShoulder -20.666752 -43.960617 27.869182
LeftArm -20.882404 1.683023 -6.953937
LeftForeArm -1.195950 0.000000 0.150723
LeftHand -13.538228 -0.000000 1.890117
LeftHandThumb1 -26.253704 0.000000 33.147579
RightShoulder -13.358672 6.725777 -18.356555
RightArm -21.309689 40.591162 12.038362
RightForeArm -34.054151 -0.000000 12.153719
RightHand -14.960570 0.000000 -1.121260
RightHandThumb1 -24.326973 -0.000000 -32.862282
LeftUpLeg 3.339110 14.266333 5.040736
LeftLeg 73.603256 -0.000000 -0.000000
LeftFoot -20.544567 16.011693 -13.393736
LeftToeBase -71.712981 -0.000000 0.000000
RightUpLeg -114.405690 15.507352 8.035827
RightLeg 111.720256 -0.000000 -0.000000
RightFoot -41.010226 -24.760371 14.852522
RightToeBase 24.601071 -0.000000 -0.000000
519
root 19.491961 17.093273 -19.594422 -98.508238 83.012223 -124.290171
Spine 8.748659 -4.182427 6.878762
Head -17.640402 -2.829314 -0.365877
LeftShoulder -20.736120 -43.942407 27.877445
LeftArm -21.069766 1.690074 -7.027687
LeftForeArm -1.379720 -0.000000 0.202220
LeftHand -13.766375 -0.000000 1.872248
LeftHandThumb1 -26.253704 0.000000 33.147579
RightShoulder -13.328689 6.777170 -18.344258
RightArm -21.402513 40.540533 12.113017
RightForeArm -33.944410 -0.000000 12.171532
RightHand -15.059304 -0.000000 -1.170810
RightHandThumb1 -24.326973 -0.000000 -32.862282
LeftUpLeg 3.147016 14.263847 5.021244
LeftLeg 73.563763 -0.000000 -0.000000
LeftFoot -20.533798 15.998009 -13.318956
LeftToeBase -71.661396 -0.000000 0.000000
RightUpLeg -114.591475 15.565327 7.980382
RightLeg 111.703544 -0.000000 -0.000000
RightFoot -41.043843 -24.865063 14.848438
RightToeBase 24.450530 -0.000000 -0.000000
520
root 19.505373 17.090567 -19.604382 -98.626086 82.983574 -124.537404
Spine 9.185729 -4.228825 6.898206
Head -17.731607 -2.758200 -0.326145
LeftShoulder -20.780709 -44.040403 27.974007
LeftArm -21.401956 1.733024 -7.105450
LeftForeArm -1.519032 -0.000000 0.313745
LeftHand -13.869193 -0.000000 1.913489
LeftHandThumb1 -26.253704 0.000000 33.147579
RightShoulder -13.336699 6.614806 -18.356916
RightArm -21.372550 40.843922 12.299494
RightForeArm -33.875629 -0.000000 12.093952
RightHand -15.133014 -0.000000 -1.339894
RightHandThumb1 -24.326973 -0.000000 -32.862282
LeftUpLeg 3.050867 14.218449 4.989527
LeftLeg 73.509439 -0.000000 -0.000000
LeftFoot -20.512465 15.988122 -13.409321
LeftToeBase -72.171014 -0.000000 0.000000
RightUpLeg -114.724680 15.575294 7.926409
RightLeg 111.751323 -0.000000 -0.000000
RightFoot -41.077719 -24.927913 14.852343
RightToeBase 24.330826 -0.000000 -0.000000
